<!DOCTYPE svg PUBLIC "-//W3C//DTD SVG 1.1//EN" "http://www.w3.org/Graphics/SVG/1.1/DTD/svg11.dtd">
<!-- Uploaded to: SVG Repo, www.svgrepo.com, Transformed by: SVG Repo Mixer Tools -->
<svg version="1.1" id="Layer_1" xmlns="http://www.w3.org/2000/svg" xmlns:xlink="http://www.w3.org/1999/xlink" viewBox="0 0 512 512" xml:space="preserve" width="64px" height="64px" fill="#000000">
<g id="SVGRepo_bgCarrier" stroke-width="0"/>
<g id="SVGRepo_tracerCarrier" stroke-linecap="round" stroke-linejoin="round"/>
<g id="SVGRepo_iconCarrier"> <path style="fill:#CC321D;" d="M257.138,407.731V509.49H104.087c-12.069-55.258,2.339-165.66,10.698-179.353L257.138,407.731z"/> <polygon style="fill:#E54728;" points="382.788,294.719 382.788,509.49 257.138,509.49 257.138,407.731 256.71,325.144 370.164,294.719 "/> <rect x="382.795" y="294.719" style="fill:#F95428;" width="125.664" height="214.77"/> <g> <rect x="375.663" y="294.719" style="fill:#666666;" width="14.264" height="214.77"/> <rect x="250.013" y="361.517" style="fill:#666666;" width="14.264" height="147.973"/> </g> <path style="fill:#168BBF;" d="M290.158,374.711l-33.021,33.021l-53.518,53.532c-98.82,25.062-53.176-33.163-53.176-52.334 l-7.132-128.004l74.985,21.923L290.158,374.711z"/> <polygon style="fill:#2BA5F7;" points="316.09,45.074 467.943,196.941 379.022,285.861 227.169,134.009 "/> <polygon style="fill:#2197D8;" points="370.164,294.719 290.158,374.711 218.297,302.85 181.111,242.414 218.297,142.866 227.169,134.009 379.022,285.861 "/> <g> <polygon style="fill:#666666;" points="373.98,290.905 222.127,139.052 232.199,128.952 384.064,280.818 "/> <rect x="172.647" y="318.895" transform="matrix(-0.7071 -0.7071 0.7071 -0.7071 181.7021 727.3167)" style="fill:#666666;" width="137.673" height="14.264"/> </g> <polygon style="fill:#B27214;" points="218.297,302.85 218.297,370.118 3.541,370.118 3.541,244.468 218.297,244.468 "/> <polygon style="fill:#E09B2D;" points="218.297,142.866 218.297,244.468 3.541,244.468 3.541,118.803 218.297,118.803 "/> <rect x="3.541" style="fill:#F7B239;" width="214.756" height="118.803"/> <g> <rect x="3.541" y="111.671" style="fill:#666666;" width="214.756" height="14.264"/> <rect x="3.541" y="237.336" style="fill:#666666;" width="214.756" height="14.264"/> </g> <path style="fill:#CCCCCC;" d="M218.297,404.622v-34.504H3.541v34.504C3.541,463.925,51.616,512,110.919,512l0,0 C170.222,512,218.297,463.925,218.297,404.622z"/> <path style="fill:#F95428;" d="M110.92,408.958c10.728,0,19.427,8.699,19.427,19.427s-8.7,19.427-19.427,19.427 c-10.745,0-19.444-8.7-19.444-19.427S100.176,408.958,110.92,408.958z"/> <rect x="3.541" y="362.986" style="fill:#666666;" width="214.756" height="14.264"/> </g>
</svg>